<svg width="1363" height="163" viewBox="0 0 1363 163" fill="none" xmlns="http://www.w3.org/2000/svg">
<path d="M0 15C0 6.71573 6.71573 0 15 0H37V163H15C6.71573 163 0 156.284 0 148V15Z" fill="#424242"/>
<rect width="1097" height="163" transform="translate(37)" fill="#F0F0F0"/>
<path d="M101.906 53.9219L94.3945 51.2383V48.0859L104.602 52.375V54.6367L101.906 53.9219ZM94.3945 56.1719L101.918 53.4297L104.602 52.7852V55.0352L94.3945 59.3242V56.1719ZM119.836 46.8555L115.195 61H111.457L117.797 43.9375H120.176L119.836 46.8555ZM123.691 61L119.039 46.8555L118.664 43.9375H121.066L127.441 61H123.691ZM123.48 54.6484V57.4023H114.469V54.6484H123.48ZM132.375 43V61H128.988V43H132.375ZM138.727 48.3203V61H135.34V48.3203H138.727ZM135.129 45.0156C135.129 44.5234 135.301 44.1172 135.645 43.7969C135.988 43.4766 136.449 43.3164 137.027 43.3164C137.598 43.3164 138.055 43.4766 138.398 43.7969C138.75 44.1172 138.926 44.5234 138.926 45.0156C138.926 45.5078 138.75 45.9141 138.398 46.2344C138.055 46.5547 137.598 46.7148 137.027 46.7148C136.449 46.7148 135.988 46.5547 135.645 46.2344C135.301 45.9141 135.129 45.5078 135.129 45.0156ZM149.543 48.3203H152.602V60.5781C152.602 61.7344 152.344 62.7148 151.828 63.5195C151.32 64.332 150.609 64.9453 149.695 65.3594C148.781 65.7812 147.719 65.9922 146.508 65.9922C145.977 65.9922 145.414 65.9219 144.82 65.7812C144.234 65.6406 143.672 65.4219 143.133 65.125C142.602 64.8281 142.156 64.4531 141.797 64L143.285 62.0078C143.676 62.4609 144.129 62.8125 144.645 63.0625C145.16 63.3203 145.73 63.4492 146.355 63.4492C146.965 63.4492 147.48 63.3359 147.902 63.1094C148.324 62.8906 148.648 62.5664 148.875 62.1367C149.102 61.7148 149.215 61.2031 149.215 60.6016V51.25L149.543 48.3203ZM141.012 54.8125V54.5664C141.012 53.5977 141.129 52.7188 141.363 51.9297C141.605 51.1328 141.945 50.4492 142.383 49.8789C142.828 49.3086 143.367 48.8672 144 48.5547C144.633 48.2422 145.348 48.0859 146.145 48.0859C146.988 48.0859 147.695 48.2422 148.266 48.5547C148.836 48.8672 149.305 49.3125 149.672 49.8906C150.039 50.4609 150.324 51.1367 150.527 51.918C150.738 52.6914 150.902 53.5391 151.02 54.4609V55C150.902 55.8828 150.727 56.7031 150.492 57.4609C150.258 58.2188 149.949 58.8828 149.566 59.4531C149.184 60.0156 148.707 60.4531 148.137 60.7656C147.574 61.0781 146.902 61.2344 146.121 61.2344C145.34 61.2344 144.633 61.0742 144 60.7539C143.375 60.4336 142.84 59.9844 142.395 59.4062C141.949 58.8281 141.605 58.1484 141.363 57.3672C141.129 56.5859 141.012 55.7344 141.012 54.8125ZM144.387 54.5664V54.8125C144.387 55.3359 144.438 55.8242 144.539 56.2773C144.641 56.7305 144.797 57.1328 145.008 57.4844C145.227 57.8281 145.496 58.0977 145.816 58.293C146.145 58.4805 146.531 58.5742 146.977 58.5742C147.594 58.5742 148.098 58.4453 148.488 58.1875C148.879 57.9219 149.172 57.5586 149.367 57.0977C149.562 56.6367 149.676 56.1055 149.707 55.5039V53.9688C149.691 53.4766 149.625 53.0352 149.508 52.6445C149.391 52.2461 149.227 51.9062 149.016 51.625C148.805 51.3438 148.531 51.125 148.195 50.9688C147.859 50.8125 147.461 50.7344 147 50.7344C146.555 50.7344 146.168 50.8359 145.84 51.0391C145.52 51.2344 145.25 51.5039 145.031 51.8477C144.82 52.1914 144.66 52.5977 144.551 53.0664C144.441 53.5273 144.387 54.0273 144.387 54.5664ZM158.531 51.0273V61H155.156V48.3203H158.32L158.531 51.0273ZM158.039 54.2148H157.125C157.125 53.2773 157.246 52.4336 157.488 51.6836C157.73 50.9258 158.07 50.2812 158.508 49.75C158.945 49.2109 159.465 48.8008 160.066 48.5195C160.676 48.2305 161.355 48.0859 162.105 48.0859C162.699 48.0859 163.242 48.1719 163.734 48.3438C164.227 48.5156 164.648 48.7891 165 49.1641C165.359 49.5391 165.633 50.0352 165.82 50.6523C166.016 51.2695 166.113 52.0234 166.113 52.9141V61H162.715V52.9023C162.715 52.3398 162.637 51.9023 162.48 51.5898C162.324 51.2773 162.094 51.0586 161.789 50.9336C161.492 50.8008 161.125 50.7344 160.688 50.7344C160.234 50.7344 159.84 50.8242 159.504 51.0039C159.176 51.1836 158.902 51.4336 158.684 51.7539C158.473 52.0664 158.312 52.4336 158.203 52.8555C158.094 53.2773 158.039 53.7305 158.039 54.2148ZM175.535 54.918H171.188V52.1758H175.535C176.207 52.1758 176.754 52.0664 177.176 51.8477C177.598 51.6211 177.906 51.3086 178.102 50.9102C178.297 50.5117 178.395 50.0625 178.395 49.5625C178.395 49.0547 178.297 48.582 178.102 48.1445C177.906 47.707 177.598 47.3555 177.176 47.0898C176.754 46.8242 176.207 46.6914 175.535 46.6914H172.406V61H168.891V43.9375H175.535C176.871 43.9375 178.016 44.1797 178.969 44.6641C179.93 45.1406 180.664 45.8008 181.172 46.6445C181.68 47.4883 181.934 48.4531 181.934 49.5391C181.934 50.6406 181.68 51.5938 181.172 52.3984C180.664 53.2031 179.93 53.8242 178.969 54.2617C178.016 54.6992 176.871 54.918 175.535 54.918ZM190.852 58.1406V52.4922C190.852 52.0859 190.785 51.7383 190.652 51.4492C190.52 51.1523 190.312 50.9219 190.031 50.7578C189.758 50.5938 189.402 50.5117 188.965 50.5117C188.59 50.5117 188.266 50.5781 187.992 50.7109C187.719 50.8359 187.508 51.0195 187.359 51.2617C187.211 51.4961 187.137 51.7734 187.137 52.0938H183.762C183.762 51.5547 183.887 51.043 184.137 50.5586C184.387 50.0742 184.75 49.6484 185.227 49.2812C185.703 48.9062 186.27 48.6133 186.926 48.4023C187.59 48.1914 188.332 48.0859 189.152 48.0859C190.137 48.0859 191.012 48.25 191.777 48.5781C192.543 48.9062 193.145 49.3984 193.582 50.0547C194.027 50.7109 194.25 51.5312 194.25 52.5156V57.9414C194.25 58.6367 194.293 59.207 194.379 59.6523C194.465 60.0898 194.59 60.4727 194.754 60.8008V61H191.344C191.18 60.6562 191.055 60.2266 190.969 59.7109C190.891 59.1875 190.852 58.6641 190.852 58.1406ZM191.297 53.2773L191.32 55.1875H189.434C188.988 55.1875 188.602 55.2383 188.273 55.3398C187.945 55.4414 187.676 55.5859 187.465 55.7734C187.254 55.9531 187.098 56.1641 186.996 56.4062C186.902 56.6484 186.855 56.9141 186.855 57.2031C186.855 57.4922 186.922 57.7539 187.055 57.9883C187.188 58.2148 187.379 58.3945 187.629 58.5273C187.879 58.6523 188.172 58.7148 188.508 58.7148C189.016 58.7148 189.457 58.6133 189.832 58.4102C190.207 58.207 190.496 57.957 190.699 57.6602C190.91 57.3633 191.02 57.082 191.027 56.8164L191.918 58.2461C191.793 58.5664 191.621 58.8984 191.402 59.2422C191.191 59.5859 190.922 59.9102 190.594 60.2148C190.266 60.5117 189.871 60.7578 189.41 60.9531C188.949 61.1406 188.402 61.2344 187.77 61.2344C186.965 61.2344 186.234 61.0742 185.578 60.7539C184.93 60.4258 184.414 59.9766 184.031 59.4062C183.656 58.8281 183.469 58.1719 183.469 57.4375C183.469 56.7734 183.594 56.1836 183.844 55.668C184.094 55.1523 184.461 54.7188 184.945 54.3672C185.438 54.0078 186.051 53.7383 186.785 53.5586C187.52 53.3711 188.371 53.2773 189.34 53.2773H191.297ZM203.062 48.3203V50.7109H195.68V48.3203H203.062ZM197.508 45.1914H200.883V57.1797C200.883 57.5469 200.93 57.8281 201.023 58.0234C201.125 58.2188 201.273 58.3555 201.469 58.4336C201.664 58.5039 201.91 58.5391 202.207 58.5391C202.418 58.5391 202.605 58.5312 202.77 58.5156C202.941 58.4922 203.086 58.4688 203.203 58.4453L203.215 60.9297C202.926 61.0234 202.613 61.0977 202.277 61.1523C201.941 61.207 201.57 61.2344 201.164 61.2344C200.422 61.2344 199.773 61.1133 199.219 60.8711C198.672 60.6211 198.25 60.2227 197.953 59.6758C197.656 59.1289 197.508 58.4102 197.508 57.5195V45.1914ZM208.277 43V61H204.902V43H208.277ZM207.797 54.2148H206.871C206.879 53.332 206.996 52.5195 207.223 51.7773C207.449 51.0273 207.773 50.3789 208.195 49.832C208.617 49.2773 209.121 48.8477 209.707 48.543C210.301 48.2383 210.957 48.0859 211.676 48.0859C212.301 48.0859 212.867 48.1758 213.375 48.3555C213.891 48.5273 214.332 48.8086 214.699 49.1992C215.074 49.582 215.363 50.0859 215.566 50.7109C215.77 51.3359 215.871 52.0938 215.871 52.9844V61H212.473V52.9609C212.473 52.3984 212.391 51.957 212.227 51.6367C212.07 51.3086 211.84 51.0781 211.535 50.9453C211.238 50.8047 210.871 50.7344 210.434 50.7344C209.949 50.7344 209.535 50.8242 209.191 51.0039C208.855 51.1836 208.586 51.4336 208.383 51.7539C208.18 52.0664 208.031 52.4336 207.938 52.8555C207.844 53.2773 207.797 53.7305 207.797 54.2148Z" fill="#888888"/>
<path d="M106.688 119H99.1172L99.1641 112.672H106.688C108.25 112.672 109.57 112.297 110.648 111.547C111.742 110.797 112.57 109.68 113.133 108.195C113.711 106.695 114 104.852 114 102.664V101.188C114 99.5469 113.836 98.1094 113.508 96.875C113.195 95.625 112.727 94.5859 112.102 93.7578C111.477 92.9141 110.695 92.2812 109.758 91.8594C108.836 91.4375 107.773 91.2266 106.57 91.2266H98.9766V84.875H106.57C108.883 84.875 111 85.2734 112.922 86.0703C114.859 86.8516 116.531 87.9766 117.938 89.4453C119.359 90.8984 120.453 92.625 121.219 94.625C122 96.6094 122.391 98.8125 122.391 101.234V102.664C122.391 105.07 122 107.273 121.219 109.273C120.453 111.273 119.367 113 117.961 114.453C116.555 115.906 114.891 117.031 112.969 117.828C111.062 118.609 108.969 119 106.688 119ZM103.828 84.875V119H95.6016V84.875H103.828ZM138.586 119.469C136.523 119.469 134.68 119.148 133.055 118.508C131.43 117.852 130.055 116.953 128.93 115.812C127.82 114.672 126.969 113.359 126.375 111.875C125.797 110.391 125.508 108.82 125.508 107.164V106.273C125.508 104.414 125.766 102.695 126.281 101.117C126.797 99.5234 127.562 98.1328 128.578 96.9453C129.594 95.7578 130.867 94.8359 132.398 94.1797C133.93 93.5078 135.711 93.1719 137.742 93.1719C139.539 93.1719 141.148 93.4609 142.57 94.0391C143.992 94.6172 145.195 95.4453 146.18 96.5234C147.18 97.6016 147.938 98.9062 148.453 100.438C148.984 101.969 149.25 103.688 149.25 105.594V108.805H128.531V103.859H141.539V103.25C141.555 102.406 141.406 101.688 141.094 101.094C140.797 100.5 140.359 100.047 139.781 99.7344C139.203 99.4219 138.5 99.2656 137.672 99.2656C136.812 99.2656 136.102 99.4531 135.539 99.8281C134.992 100.203 134.562 100.719 134.25 101.375C133.953 102.016 133.742 102.758 133.617 103.602C133.492 104.445 133.43 105.336 133.43 106.273V107.164C133.43 108.102 133.555 108.953 133.805 109.719C134.07 110.484 134.445 111.141 134.93 111.688C135.43 112.219 136.023 112.633 136.711 112.93C137.414 113.227 138.211 113.375 139.102 113.375C140.18 113.375 141.242 113.172 142.289 112.766C143.336 112.359 144.234 111.688 144.984 110.75L148.57 115.016C148.055 115.75 147.32 116.461 146.367 117.148C145.43 117.836 144.305 118.398 142.992 118.836C141.68 119.258 140.211 119.469 138.586 119.469ZM160.43 99.0078V119H152.531V93.6406H159.938L160.43 99.0078ZM159.469 105.453L157.664 105.5C157.664 103.719 157.875 102.078 158.297 100.578C158.719 99.0781 159.344 97.7734 160.172 96.6641C161 95.5547 162.016 94.6953 163.219 94.0859C164.438 93.4766 165.844 93.1719 167.438 93.1719C168.547 93.1719 169.555 93.3438 170.461 93.6875C171.367 94.0156 172.148 94.5391 172.805 95.2578C173.461 95.9609 173.961 96.8828 174.305 98.0234C174.664 99.1484 174.844 100.5 174.844 102.078V119H166.945V103.086C166.945 102.008 166.82 101.195 166.57 100.648C166.336 100.102 165.992 99.7344 165.539 99.5469C165.086 99.3594 164.531 99.2656 163.875 99.2656C163.188 99.2656 162.57 99.4219 162.023 99.7344C161.477 100.047 161.008 100.484 160.617 101.047C160.242 101.594 159.953 102.242 159.75 102.992C159.562 103.742 159.469 104.562 159.469 105.453ZM173.953 105.453L171.75 105.5C171.75 103.719 171.945 102.078 172.336 100.578C172.742 99.0781 173.344 97.7734 174.141 96.6641C174.953 95.5547 175.961 94.6953 177.164 94.0859C178.367 93.4766 179.766 93.1719 181.359 93.1719C182.516 93.1719 183.578 93.3438 184.547 93.6875C185.516 94.0312 186.352 94.5859 187.055 95.3516C187.758 96.1172 188.305 97.1328 188.695 98.3984C189.086 99.6484 189.281 101.195 189.281 103.039V119H181.359V103.039C181.359 101.992 181.234 101.203 180.984 100.672C180.75 100.125 180.406 99.7578 179.953 99.5703C179.5 99.3672 178.961 99.2656 178.336 99.2656C177.586 99.2656 176.938 99.4219 176.391 99.7344C175.844 100.047 175.383 100.484 175.008 101.047C174.648 101.594 174.383 102.242 174.211 102.992C174.039 103.742 173.953 104.562 173.953 105.453ZM192.82 106.578V106.086C192.82 104.227 193.086 102.516 193.617 100.953C194.148 99.375 194.93 98.0078 195.961 96.8516C196.992 95.6953 198.266 94.7969 199.781 94.1562C201.297 93.5 203.047 93.1719 205.031 93.1719C207.031 93.1719 208.789 93.5 210.305 94.1562C211.836 94.7969 213.117 95.6953 214.148 96.8516C215.18 98.0078 215.961 99.375 216.492 100.953C217.023 102.516 217.289 104.227 217.289 106.086V106.578C217.289 108.422 217.023 110.133 216.492 111.711C215.961 113.273 215.18 114.641 214.148 115.812C213.117 116.969 211.844 117.867 210.328 118.508C208.812 119.148 207.062 119.469 205.078 119.469C203.094 119.469 201.336 119.148 199.805 118.508C198.273 117.867 196.992 116.969 195.961 115.812C194.93 114.641 194.148 113.273 193.617 111.711C193.086 110.133 192.82 108.422 192.82 106.578ZM200.719 106.086V106.578C200.719 107.531 200.789 108.422 200.93 109.25C201.07 110.078 201.305 110.805 201.633 111.43C201.961 112.039 202.406 112.516 202.969 112.859C203.531 113.203 204.234 113.375 205.078 113.375C205.906 113.375 206.594 113.203 207.141 112.859C207.703 112.516 208.148 112.039 208.477 111.43C208.805 110.805 209.039 110.078 209.18 109.25C209.32 108.422 209.391 107.531 209.391 106.578V106.086C209.391 105.164 209.32 104.297 209.18 103.484C209.039 102.656 208.805 101.93 208.477 101.305C208.148 100.664 207.703 100.164 207.141 99.8047C206.578 99.4453 205.875 99.2656 205.031 99.2656C204.203 99.2656 203.508 99.4453 202.945 99.8047C202.398 100.164 201.961 100.664 201.633 101.305C201.305 101.93 201.07 102.656 200.93 103.484C200.789 104.297 200.719 105.164 200.719 106.086Z" fill="black"/>
<path d="M1134 0H1348C1356.28 0 1363 6.71573 1363 15V148C1363 156.284 1356.28 163 1348 163H1134V0Z" fill="#F46530"/>
<path d="M1280.07 47.5H1216.93L1214.5 49.9286V113.071L1216.93 115.5H1280.07L1282.5 113.071V49.9286L1280.07 47.5ZM1277.64 110.643H1233.93V100.929H1245.1C1246.56 103.843 1249.96 105.786 1253.36 105.786C1258.7 105.786 1263.07 101.414 1263.07 96.0714C1263.07 90.7286 1258.7 86.3571 1253.36 86.3571C1248.01 86.3571 1243.64 90.7286 1243.64 96.0714H1229.07V110.643H1219.36V52.3571H1229.07V63.5286C1226.16 64.9857 1224.21 68.3857 1224.21 71.7857C1224.21 77.1286 1228.59 81.5 1233.93 81.5C1239.27 81.5 1243.64 77.1286 1243.64 71.7857H1253.36C1253.36 77.1286 1257.73 81.5 1263.07 81.5C1268.41 81.5 1272.79 77.1286 1272.79 71.7857C1272.79 66.4429 1268.41 62.0714 1263.07 62.0714C1259.67 62.0714 1256.27 64.0143 1254.81 66.9286H1242.19C1240.73 64.0143 1237.33 62.0714 1233.93 62.0714V52.3571H1277.64V110.643ZM1248.5 96.0714C1248.5 93.1571 1250.44 91.2143 1253.36 91.2143C1256.27 91.2143 1258.21 93.1571 1258.21 96.0714C1258.21 98.9857 1256.27 100.929 1253.36 100.929C1250.44 100.929 1248.5 98.9857 1248.5 96.0714ZM1233.93 66.9286C1236.84 66.9286 1238.79 68.8714 1238.79 71.7857C1238.79 74.7 1236.84 76.6429 1233.93 76.6429C1231.01 76.6429 1229.07 74.7 1229.07 71.7857C1229.07 68.8714 1231.01 66.9286 1233.93 66.9286ZM1263.07 66.9286C1265.99 66.9286 1267.93 68.8714 1267.93 71.7857C1267.93 74.7 1265.99 76.6429 1263.07 76.6429C1260.16 76.6429 1258.21 74.7 1258.21 71.7857C1258.21 68.8714 1260.16 66.9286 1263.07 66.9286Z" fill="white"/>
</svg>
