<svg width="1363" height="163" viewBox="0 0 1363 163" fill="none" xmlns="http://www.w3.org/2000/svg">
<path d="M0 15C0 6.71573 6.71573 0 15 0H37V163H15C6.71573 163 0 156.284 0 148V15Z" fill="#424242"/>
<rect width="1097" height="163" transform="translate(37)" fill="#F0F0F0"/>
<path d="M101.906 53.9219L94.3945 51.2383V48.0859L104.602 52.375V54.6367L101.906 53.9219ZM94.3945 56.1719L101.918 53.4297L104.602 52.7852V55.0352L94.3945 59.3242V56.1719ZM119.836 46.8555L115.195 61H111.457L117.797 43.9375H120.176L119.836 46.8555ZM123.691 61L119.039 46.8555L118.664 43.9375H121.066L127.441 61H123.691ZM123.48 54.6484V57.4023H114.469V54.6484H123.48ZM132.375 43V61H128.988V43H132.375ZM138.727 48.3203V61H135.34V48.3203H138.727ZM135.129 45.0156C135.129 44.5234 135.301 44.1172 135.645 43.7969C135.988 43.4766 136.449 43.3164 137.027 43.3164C137.598 43.3164 138.055 43.4766 138.398 43.7969C138.75 44.1172 138.926 44.5234 138.926 45.0156C138.926 45.5078 138.75 45.9141 138.398 46.2344C138.055 46.5547 137.598 46.7148 137.027 46.7148C136.449 46.7148 135.988 46.5547 135.645 46.2344C135.301 45.9141 135.129 45.5078 135.129 45.0156ZM149.543 48.3203H152.602V60.5781C152.602 61.7344 152.344 62.7148 151.828 63.5195C151.32 64.332 150.609 64.9453 149.695 65.3594C148.781 65.7812 147.719 65.9922 146.508 65.9922C145.977 65.9922 145.414 65.9219 144.82 65.7812C144.234 65.6406 143.672 65.4219 143.133 65.125C142.602 64.8281 142.156 64.4531 141.797 64L143.285 62.0078C143.676 62.4609 144.129 62.8125 144.645 63.0625C145.16 63.3203 145.73 63.4492 146.355 63.4492C146.965 63.4492 147.48 63.3359 147.902 63.1094C148.324 62.8906 148.648 62.5664 148.875 62.1367C149.102 61.7148 149.215 61.2031 149.215 60.6016V51.25L149.543 48.3203ZM141.012 54.8125V54.5664C141.012 53.5977 141.129 52.7188 141.363 51.9297C141.605 51.1328 141.945 50.4492 142.383 49.8789C142.828 49.3086 143.367 48.8672 144 48.5547C144.633 48.2422 145.348 48.0859 146.145 48.0859C146.988 48.0859 147.695 48.2422 148.266 48.5547C148.836 48.8672 149.305 49.3125 149.672 49.8906C150.039 50.4609 150.324 51.1367 150.527 51.918C150.738 52.6914 150.902 53.5391 151.02 54.4609V55C150.902 55.8828 150.727 56.7031 150.492 57.4609C150.258 58.2188 149.949 58.8828 149.566 59.4531C149.184 60.0156 148.707 60.4531 148.137 60.7656C147.574 61.0781 146.902 61.2344 146.121 61.2344C145.34 61.2344 144.633 61.0742 144 60.7539C143.375 60.4336 142.84 59.9844 142.395 59.4062C141.949 58.8281 141.605 58.1484 141.363 57.3672C141.129 56.5859 141.012 55.7344 141.012 54.8125ZM144.387 54.5664V54.8125C144.387 55.3359 144.438 55.8242 144.539 56.2773C144.641 56.7305 144.797 57.1328 145.008 57.4844C145.227 57.8281 145.496 58.0977 145.816 58.293C146.145 58.4805 146.531 58.5742 146.977 58.5742C147.594 58.5742 148.098 58.4453 148.488 58.1875C148.879 57.9219 149.172 57.5586 149.367 57.0977C149.562 56.6367 149.676 56.1055 149.707 55.5039V53.9688C149.691 53.4766 149.625 53.0352 149.508 52.6445C149.391 52.2461 149.227 51.9062 149.016 51.625C148.805 51.3438 148.531 51.125 148.195 50.9688C147.859 50.8125 147.461 50.7344 147 50.7344C146.555 50.7344 146.168 50.8359 145.84 51.0391C145.52 51.2344 145.25 51.5039 145.031 51.8477C144.82 52.1914 144.66 52.5977 144.551 53.0664C144.441 53.5273 144.387 54.0273 144.387 54.5664ZM158.531 51.0273V61H155.156V48.3203H158.32L158.531 51.0273ZM158.039 54.2148H157.125C157.125 53.2773 157.246 52.4336 157.488 51.6836C157.73 50.9258 158.07 50.2812 158.508 49.75C158.945 49.2109 159.465 48.8008 160.066 48.5195C160.676 48.2305 161.355 48.0859 162.105 48.0859C162.699 48.0859 163.242 48.1719 163.734 48.3438C164.227 48.5156 164.648 48.7891 165 49.1641C165.359 49.5391 165.633 50.0352 165.82 50.6523C166.016 51.2695 166.113 52.0234 166.113 52.9141V61H162.715V52.9023C162.715 52.3398 162.637 51.9023 162.48 51.5898C162.324 51.2773 162.094 51.0586 161.789 50.9336C161.492 50.8008 161.125 50.7344 160.688 50.7344C160.234 50.7344 159.84 50.8242 159.504 51.0039C159.176 51.1836 158.902 51.4336 158.684 51.7539C158.473 52.0664 158.312 52.4336 158.203 52.8555C158.094 53.2773 158.039 53.7305 158.039 54.2148ZM175.535 54.918H171.188V52.1758H175.535C176.207 52.1758 176.754 52.0664 177.176 51.8477C177.598 51.6211 177.906 51.3086 178.102 50.9102C178.297 50.5117 178.395 50.0625 178.395 49.5625C178.395 49.0547 178.297 48.582 178.102 48.1445C177.906 47.707 177.598 47.3555 177.176 47.0898C176.754 46.8242 176.207 46.6914 175.535 46.6914H172.406V61H168.891V43.9375H175.535C176.871 43.9375 178.016 44.1797 178.969 44.6641C179.93 45.1406 180.664 45.8008 181.172 46.6445C181.68 47.4883 181.934 48.4531 181.934 49.5391C181.934 50.6406 181.68 51.5938 181.172 52.3984C180.664 53.2031 179.93 53.8242 178.969 54.2617C178.016 54.6992 176.871 54.918 175.535 54.918ZM190.852 58.1406V52.4922C190.852 52.0859 190.785 51.7383 190.652 51.4492C190.52 51.1523 190.312 50.9219 190.031 50.7578C189.758 50.5938 189.402 50.5117 188.965 50.5117C188.59 50.5117 188.266 50.5781 187.992 50.7109C187.719 50.8359 187.508 51.0195 187.359 51.2617C187.211 51.4961 187.137 51.7734 187.137 52.0938H183.762C183.762 51.5547 183.887 51.043 184.137 50.5586C184.387 50.0742 184.75 49.6484 185.227 49.2812C185.703 48.9062 186.27 48.6133 186.926 48.4023C187.59 48.1914 188.332 48.0859 189.152 48.0859C190.137 48.0859 191.012 48.25 191.777 48.5781C192.543 48.9062 193.145 49.3984 193.582 50.0547C194.027 50.7109 194.25 51.5312 194.25 52.5156V57.9414C194.25 58.6367 194.293 59.207 194.379 59.6523C194.465 60.0898 194.59 60.4727 194.754 60.8008V61H191.344C191.18 60.6562 191.055 60.2266 190.969 59.7109C190.891 59.1875 190.852 58.6641 190.852 58.1406ZM191.297 53.2773L191.32 55.1875H189.434C188.988 55.1875 188.602 55.2383 188.273 55.3398C187.945 55.4414 187.676 55.5859 187.465 55.7734C187.254 55.9531 187.098 56.1641 186.996 56.4062C186.902 56.6484 186.855 56.9141 186.855 57.2031C186.855 57.4922 186.922 57.7539 187.055 57.9883C187.188 58.2148 187.379 58.3945 187.629 58.5273C187.879 58.6523 188.172 58.7148 188.508 58.7148C189.016 58.7148 189.457 58.6133 189.832 58.4102C190.207 58.207 190.496 57.957 190.699 57.6602C190.91 57.3633 191.02 57.082 191.027 56.8164L191.918 58.2461C191.793 58.5664 191.621 58.8984 191.402 59.2422C191.191 59.5859 190.922 59.9102 190.594 60.2148C190.266 60.5117 189.871 60.7578 189.41 60.9531C188.949 61.1406 188.402 61.2344 187.77 61.2344C186.965 61.2344 186.234 61.0742 185.578 60.7539C184.93 60.4258 184.414 59.9766 184.031 59.4062C183.656 58.8281 183.469 58.1719 183.469 57.4375C183.469 56.7734 183.594 56.1836 183.844 55.668C184.094 55.1523 184.461 54.7188 184.945 54.3672C185.438 54.0078 186.051 53.7383 186.785 53.5586C187.52 53.3711 188.371 53.2773 189.34 53.2773H191.297ZM203.062 48.3203V50.7109H195.68V48.3203H203.062ZM197.508 45.1914H200.883V57.1797C200.883 57.5469 200.93 57.8281 201.023 58.0234C201.125 58.2188 201.273 58.3555 201.469 58.4336C201.664 58.5039 201.91 58.5391 202.207 58.5391C202.418 58.5391 202.605 58.5312 202.77 58.5156C202.941 58.4922 203.086 58.4688 203.203 58.4453L203.215 60.9297C202.926 61.0234 202.613 61.0977 202.277 61.1523C201.941 61.207 201.57 61.2344 201.164 61.2344C200.422 61.2344 199.773 61.1133 199.219 60.8711C198.672 60.6211 198.25 60.2227 197.953 59.6758C197.656 59.1289 197.508 58.4102 197.508 57.5195V45.1914ZM208.277 43V61H204.902V43H208.277ZM207.797 54.2148H206.871C206.879 53.332 206.996 52.5195 207.223 51.7773C207.449 51.0273 207.773 50.3789 208.195 49.832C208.617 49.2773 209.121 48.8477 209.707 48.543C210.301 48.2383 210.957 48.0859 211.676 48.0859C212.301 48.0859 212.867 48.1758 213.375 48.3555C213.891 48.5273 214.332 48.8086 214.699 49.1992C215.074 49.582 215.363 50.0859 215.566 50.7109C215.77 51.3359 215.871 52.0938 215.871 52.9844V61H212.473V52.9609C212.473 52.3984 212.391 51.957 212.227 51.6367C212.07 51.3086 211.84 51.0781 211.535 50.9453C211.238 50.8047 210.871 50.7344 210.434 50.7344C209.949 50.7344 209.535 50.8242 209.191 51.0039C208.855 51.1836 208.586 51.4336 208.383 51.7539C208.18 52.0664 208.031 52.4336 207.938 52.8555C207.844 53.2773 207.797 53.7305 207.797 54.2148Z" fill="#888888"/>
<path d="M106.688 119H99.1172L99.1641 112.672H106.688C108.25 112.672 109.57 112.297 110.648 111.547C111.742 110.797 112.57 109.68 113.133 108.195C113.711 106.695 114 104.852 114 102.664V101.188C114 99.5469 113.836 98.1094 113.508 96.875C113.195 95.625 112.727 94.5859 112.102 93.7578C111.477 92.9141 110.695 92.2812 109.758 91.8594C108.836 91.4375 107.773 91.2266 106.57 91.2266H98.9766V84.875H106.57C108.883 84.875 111 85.2734 112.922 86.0703C114.859 86.8516 116.531 87.9766 117.938 89.4453C119.359 90.8984 120.453 92.625 121.219 94.625C122 96.6094 122.391 98.8125 122.391 101.234V102.664C122.391 105.07 122 107.273 121.219 109.273C120.453 111.273 119.367 113 117.961 114.453C116.555 115.906 114.891 117.031 112.969 117.828C111.062 118.609 108.969 119 106.688 119ZM103.828 84.875V119H95.6016V84.875H103.828ZM138.586 119.469C136.523 119.469 134.68 119.148 133.055 118.508C131.43 117.852 130.055 116.953 128.93 115.812C127.82 114.672 126.969 113.359 126.375 111.875C125.797 110.391 125.508 108.82 125.508 107.164V106.273C125.508 104.414 125.766 102.695 126.281 101.117C126.797 99.5234 127.562 98.1328 128.578 96.9453C129.594 95.7578 130.867 94.8359 132.398 94.1797C133.93 93.5078 135.711 93.1719 137.742 93.1719C139.539 93.1719 141.148 93.4609 142.57 94.0391C143.992 94.6172 145.195 95.4453 146.18 96.5234C147.18 97.6016 147.938 98.9062 148.453 100.438C148.984 101.969 149.25 103.688 149.25 105.594V108.805H128.531V103.859H141.539V103.25C141.555 102.406 141.406 101.688 141.094 101.094C140.797 100.5 140.359 100.047 139.781 99.7344C139.203 99.4219 138.5 99.2656 137.672 99.2656C136.812 99.2656 136.102 99.4531 135.539 99.8281C134.992 100.203 134.562 100.719 134.25 101.375C133.953 102.016 133.742 102.758 133.617 103.602C133.492 104.445 133.43 105.336 133.43 106.273V107.164C133.43 108.102 133.555 108.953 133.805 109.719C134.07 110.484 134.445 111.141 134.93 111.688C135.43 112.219 136.023 112.633 136.711 112.93C137.414 113.227 138.211 113.375 139.102 113.375C140.18 113.375 141.242 113.172 142.289 112.766C143.336 112.359 144.234 111.688 144.984 110.75L148.57 115.016C148.055 115.75 147.32 116.461 146.367 117.148C145.43 117.836 144.305 118.398 142.992 118.836C141.68 119.258 140.211 119.469 138.586 119.469ZM160.43 98.5156V128.75H152.531V93.6406H159.891L160.43 98.5156ZM175.992 106.016V106.508C175.992 108.352 175.781 110.062 175.359 111.641C174.938 113.219 174.312 114.594 173.484 115.766C172.656 116.938 171.625 117.852 170.391 118.508C169.172 119.148 167.758 119.469 166.148 119.469C164.633 119.469 163.328 119.133 162.234 118.461C161.141 117.789 160.227 116.859 159.492 115.672C158.758 114.484 158.164 113.125 157.711 111.594C157.258 110.062 156.898 108.445 156.633 106.742V106.109C156.898 104.281 157.258 102.586 157.711 101.023C158.164 99.4453 158.758 98.0703 159.492 96.8984C160.227 95.7266 161.133 94.8125 162.211 94.1562C163.305 93.5 164.609 93.1719 166.125 93.1719C167.734 93.1719 169.148 93.4766 170.367 94.0859C171.602 94.6953 172.633 95.5703 173.461 96.7109C174.305 97.8359 174.938 99.1875 175.359 100.766C175.781 102.344 175.992 104.094 175.992 106.016ZM168.094 106.508V106.016C168.094 105.031 168.023 104.133 167.883 103.32C167.742 102.492 167.516 101.773 167.203 101.164C166.906 100.555 166.508 100.086 166.008 99.7578C165.508 99.4297 164.891 99.2656 164.156 99.2656C163.312 99.2656 162.602 99.3984 162.023 99.6641C161.461 99.9141 161.008 100.305 160.664 100.836C160.336 101.352 160.102 102 159.961 102.781C159.836 103.547 159.781 104.445 159.797 105.477V107.398C159.766 108.586 159.883 109.633 160.148 110.539C160.414 111.43 160.875 112.125 161.531 112.625C162.188 113.125 163.078 113.375 164.203 113.375C164.953 113.375 165.578 113.203 166.078 112.859C166.578 112.5 166.977 112.008 167.273 111.383C167.57 110.742 167.781 110.008 167.906 109.18C168.031 108.352 168.094 107.461 168.094 106.508ZM187.852 83V119H179.93V83H187.852ZM191.742 106.578V106.086C191.742 104.227 192.008 102.516 192.539 100.953C193.07 99.375 193.852 98.0078 194.883 96.8516C195.914 95.6953 197.188 94.7969 198.703 94.1562C200.219 93.5 201.969 93.1719 203.953 93.1719C205.953 93.1719 207.711 93.5 209.227 94.1562C210.758 94.7969 212.039 95.6953 213.07 96.8516C214.102 98.0078 214.883 99.375 215.414 100.953C215.945 102.516 216.211 104.227 216.211 106.086V106.578C216.211 108.422 215.945 110.133 215.414 111.711C214.883 113.273 214.102 114.641 213.07 115.812C212.039 116.969 210.766 117.867 209.25 118.508C207.734 119.148 205.984 119.469 204 119.469C202.016 119.469 200.258 119.148 198.727 118.508C197.195 117.867 195.914 116.969 194.883 115.812C193.852 114.641 193.07 113.273 192.539 111.711C192.008 110.133 191.742 108.422 191.742 106.578ZM199.641 106.086V106.578C199.641 107.531 199.711 108.422 199.852 109.25C199.992 110.078 200.227 110.805 200.555 111.43C200.883 112.039 201.328 112.516 201.891 112.859C202.453 113.203 203.156 113.375 204 113.375C204.828 113.375 205.516 113.203 206.062 112.859C206.625 112.516 207.07 112.039 207.398 111.43C207.727 110.805 207.961 110.078 208.102 109.25C208.242 108.422 208.312 107.531 208.312 106.578V106.086C208.312 105.164 208.242 104.297 208.102 103.484C207.961 102.656 207.727 101.93 207.398 101.305C207.07 100.664 206.625 100.164 206.062 99.8047C205.5 99.4453 204.797 99.2656 203.953 99.2656C203.125 99.2656 202.43 99.4453 201.867 99.8047C201.32 100.164 200.883 100.664 200.555 101.305C200.227 101.93 199.992 102.656 199.852 103.484C199.711 104.297 199.641 105.164 199.641 106.086ZM227.133 116.023L233.695 93.6406H242.18L231.984 122.773C231.766 123.414 231.477 124.102 231.117 124.836C230.758 125.586 230.266 126.297 229.641 126.969C229.016 127.641 228.211 128.188 227.227 128.609C226.258 129.031 225.055 129.242 223.617 129.242C222.852 129.242 222.289 129.203 221.93 129.125C221.586 129.062 221.055 128.945 220.336 128.773V123.125C220.539 123.125 220.711 123.125 220.852 123.125C221.008 123.125 221.18 123.125 221.367 123.125C222.211 123.125 222.883 123.039 223.383 122.867C223.898 122.695 224.289 122.445 224.555 122.117C224.836 121.789 225.055 121.391 225.211 120.922L227.133 116.023ZM225.469 93.6406L230.461 111.383L231.328 119.75H226.031L217.008 93.6406H225.469ZM252.211 99.0078V119H244.312V93.6406H251.719L252.211 99.0078ZM251.25 105.453L249.445 105.5C249.445 103.719 249.656 102.078 250.078 100.578C250.5 99.0781 251.125 97.7734 251.953 96.6641C252.781 95.5547 253.797 94.6953 255 94.0859C256.219 93.4766 257.625 93.1719 259.219 93.1719C260.328 93.1719 261.336 93.3438 262.242 93.6875C263.148 94.0156 263.93 94.5391 264.586 95.2578C265.242 95.9609 265.742 96.8828 266.086 98.0234C266.445 99.1484 266.625 100.5 266.625 102.078V119H258.727V103.086C258.727 102.008 258.602 101.195 258.352 100.648C258.117 100.102 257.773 99.7344 257.32 99.5469C256.867 99.3594 256.312 99.2656 255.656 99.2656C254.969 99.2656 254.352 99.4219 253.805 99.7344C253.258 100.047 252.789 100.484 252.398 101.047C252.023 101.594 251.734 102.242 251.531 102.992C251.344 103.742 251.25 104.562 251.25 105.453ZM265.734 105.453L263.531 105.5C263.531 103.719 263.727 102.078 264.117 100.578C264.523 99.0781 265.125 97.7734 265.922 96.6641C266.734 95.5547 267.742 94.6953 268.945 94.0859C270.148 93.4766 271.547 93.1719 273.141 93.1719C274.297 93.1719 275.359 93.3438 276.328 93.6875C277.297 94.0312 278.133 94.5859 278.836 95.3516C279.539 96.1172 280.086 97.1328 280.477 98.3984C280.867 99.6484 281.062 101.195 281.062 103.039V119H273.141V103.039C273.141 101.992 273.016 101.203 272.766 100.672C272.531 100.125 272.188 99.7578 271.734 99.5703C271.281 99.3672 270.742 99.2656 270.117 99.2656C269.367 99.2656 268.719 99.4219 268.172 99.7344C267.625 100.047 267.164 100.484 266.789 101.047C266.43 101.594 266.164 102.242 265.992 102.992C265.82 103.742 265.734 104.562 265.734 105.453ZM297.867 119.469C295.805 119.469 293.961 119.148 292.336 118.508C290.711 117.852 289.336 116.953 288.211 115.812C287.102 114.672 286.25 113.359 285.656 111.875C285.078 110.391 284.789 108.82 284.789 107.164V106.273C284.789 104.414 285.047 102.695 285.562 101.117C286.078 99.5234 286.844 98.1328 287.859 96.9453C288.875 95.7578 290.148 94.8359 291.68 94.1797C293.211 93.5078 294.992 93.1719 297.023 93.1719C298.82 93.1719 300.43 93.4609 301.852 94.0391C303.273 94.6172 304.477 95.4453 305.461 96.5234C306.461 97.6016 307.219 98.9062 307.734 100.438C308.266 101.969 308.531 103.688 308.531 105.594V108.805H287.812V103.859H300.82V103.25C300.836 102.406 300.688 101.688 300.375 101.094C300.078 100.5 299.641 100.047 299.062 99.7344C298.484 99.4219 297.781 99.2656 296.953 99.2656C296.094 99.2656 295.383 99.4531 294.82 99.8281C294.273 100.203 293.844 100.719 293.531 101.375C293.234 102.016 293.023 102.758 292.898 103.602C292.773 104.445 292.711 105.336 292.711 106.273V107.164C292.711 108.102 292.836 108.953 293.086 109.719C293.352 110.484 293.727 111.141 294.211 111.688C294.711 112.219 295.305 112.633 295.992 112.93C296.695 113.227 297.492 113.375 298.383 113.375C299.461 113.375 300.523 113.172 301.57 112.766C302.617 112.359 303.516 111.688 304.266 110.75L307.852 115.016C307.336 115.75 306.602 116.461 305.648 117.148C304.711 117.836 303.586 118.398 302.273 118.836C300.961 119.258 299.492 119.469 297.867 119.469ZM319.5 99.0547V119H311.602V93.6406H319.008L319.5 99.0547ZM318.562 105.453L316.711 105.5C316.711 103.562 316.945 101.836 317.414 100.32C317.883 98.7891 318.547 97.4922 319.406 96.4297C320.266 95.3672 321.289 94.5625 322.477 94.0156C323.68 93.4531 325.016 93.1719 326.484 93.1719C327.656 93.1719 328.727 93.3438 329.695 93.6875C330.68 94.0312 331.523 94.5859 332.227 95.3516C332.945 96.1172 333.492 97.1328 333.867 98.3984C334.258 99.6484 334.453 101.195 334.453 103.039V119H326.508V103.016C326.508 102 326.367 101.227 326.086 100.695C325.805 100.148 325.398 99.7734 324.867 99.5703C324.336 99.3672 323.688 99.2656 322.922 99.2656C322.109 99.2656 321.422 99.4219 320.859 99.7344C320.297 100.047 319.844 100.484 319.5 101.047C319.172 101.594 318.93 102.242 318.773 102.992C318.633 103.742 318.562 104.562 318.562 105.453ZM352.195 93.6406V99.125H336.914V93.6406H352.195ZM340.125 87.3359H348.023V110.727C348.023 111.398 348.102 111.922 348.258 112.297C348.414 112.656 348.68 112.914 349.055 113.07C349.445 113.211 349.961 113.281 350.602 113.281C351.055 113.281 351.43 113.273 351.727 113.258C352.023 113.227 352.305 113.188 352.57 113.141V118.789C351.898 119.008 351.195 119.172 350.461 119.281C349.727 119.406 348.945 119.469 348.117 119.469C346.43 119.469 344.984 119.203 343.781 118.672C342.594 118.141 341.688 117.305 341.062 116.164C340.438 115.023 340.125 113.539 340.125 111.711V87.3359Z" fill="black"/>
<path d="M1134 0H1348C1356.28 0 1363 6.71573 1363 15V148C1363 156.284 1356.28 163 1348 163H1134V0Z" fill="#F46530"/>
<path d="M1212.5 117.5L1212.5 45.5L1284.5 45.5L1284.5 117.5L1212.5 117.5Z" fill="white" fill-opacity="0.01"/>
<path d="M1221.5 81.5125L1221.5 108.5L1275.5 108.5L1275.5 81.5" stroke="white" stroke-width="7.24" stroke-linecap="round" stroke-linejoin="round"/>
<path d="M1262 68L1248.5 54.5L1235 68" stroke="white" stroke-width="7.24" stroke-linecap="round" stroke-linejoin="round"/>
<path d="M1248.49 93.4999L1248.49 54.5" stroke="white" stroke-width="7.24" stroke-linecap="round" stroke-linejoin="round"/>
</svg>
